<svg id="visual" viewBox="0 0 900 600" width="900" height="600" xmlns="http://www.w3.org/2000/svg" xmlns:xlink="http://www.w3.org/1999/xlink" version="1.1"><rect x="0" y="0" width="900" height="600" fill="#ffffff"></rect><path d="M658 600L659 591.7C660 583.3 662 566.7 666.2 550C670.3 533.3 676.7 516.7 674.2 500C671.7 483.3 660.3 466.7 662.3 450C664.3 433.3 679.7 416.7 686.2 400C692.7 383.3 690.3 366.7 689.7 350C689 333.3 690 316.7 688.5 300C687 283.3 683 266.7 674.5 250C666 233.3 653 216.7 643.8 200C634.7 183.3 629.3 166.7 636.5 150C643.7 133.3 663.3 116.7 658.5 100C653.7 83.3 624.3 66.7 612.7 50C601 33.3 607 16.7 610 8.3L613 0L900 0L900 8.3C900 16.7 900 33.3 900 50C900 66.7 900 83.3 900 100C900 116.7 900 133.3 900 150C900 166.7 900 183.3 900 200C900 216.7 900 233.3 900 250C900 266.7 900 283.3 900 300C900 316.7 900 333.3 900 350C900 366.7 900 383.3 900 400C900 416.7 900 433.3 900 450C900 466.7 900 483.3 900 500C900 516.7 900 533.3 900 550C900 566.7 900 583.3 900 591.7L900 600Z" fill="#1839be"></path><path d="M642 600L656.5 591.7C671 583.3 700 566.7 703.7 550C707.3 533.3 685.7 516.7 673.8 500C662 483.3 660 466.7 660.2 450C660.3 433.3 662.7 416.7 669.5 400C676.3 383.3 687.7 366.7 689.2 350C690.7 333.3 682.3 316.7 675.5 300C668.7 283.3 663.3 266.7 657.7 250C652 233.3 646 216.7 646.2 200C646.3 183.3 652.7 166.7 655.7 150C658.7 133.3 658.3 116.7 663.3 100C668.3 83.3 678.7 66.7 688 50C697.3 33.3 705.7 16.7 709.8 8.3L714 0L900 0L900 8.3C900 16.7 900 33.3 900 50C900 66.7 900 83.3 900 100C900 116.7 900 133.3 900 150C900 166.7 900 183.3 900 200C900 216.7 900 233.3 900 250C900 266.7 900 283.3 900 300C900 316.7 900 333.3 900 350C900 366.7 900 383.3 900 400C900 416.7 900 433.3 900 450C900 466.7 900 483.3 900 500C900 516.7 900 533.3 900 550C900 566.7 900 583.3 900 591.7L900 600Z" fill="#1635af"></path><path d="M726 600L732.3 591.7C738.7 583.3 751.3 566.7 746 550C740.7 533.3 717.3 516.7 710 500C702.7 483.3 711.3 466.7 715.3 450C719.3 433.3 718.7 416.7 713.2 400C707.7 383.3 697.3 366.7 700.7 350C704 333.3 721 316.7 731 300C741 283.3 744 266.7 736.8 250C729.7 233.3 712.3 216.7 702.7 200C693 183.3 691 166.7 698.7 150C706.3 133.3 723.7 116.7 735.2 100C746.7 83.3 752.3 66.7 750.3 50C748.3 33.3 738.7 16.7 733.8 8.3L729 0L900 0L900 8.3C900 16.7 900 33.3 900 50C900 66.7 900 83.3 900 100C900 116.7 900 133.3 900 150C900 166.7 900 183.3 900 200C900 216.7 900 233.3 900 250C900 266.7 900 283.3 900 300C900 316.7 900 333.3 900 350C900 366.7 900 383.3 900 400C900 416.7 900 433.3 900 450C900 466.7 900 483.3 900 500C900 516.7 900 533.3 900 550C900 566.7 900 583.3 900 591.7L900 600Z" fill="#1432a1"></path><path d="M784 600L787.2 591.7C790.3 583.3 796.7 566.7 797.3 550C798 533.3 793 516.7 783.7 500C774.3 483.3 760.7 466.7 751.5 450C742.3 433.3 737.7 416.7 745.3 400C753 383.3 773 366.7 774 350C775 333.3 757 316.7 751.7 300C746.3 283.3 753.7 266.7 764 250C774.3 233.3 787.7 216.7 790.2 200C792.7 183.3 784.3 166.7 774.7 150C765 133.3 754 116.7 749 100C744 83.3 745 66.7 745.5 50C746 33.3 746 16.7 746 8.3L746 0L900 0L900 8.3C900 16.7 900 33.3 900 50C900 66.7 900 83.3 900 100C900 116.7 900 133.3 900 150C900 166.7 900 183.3 900 200C900 216.7 900 233.3 900 250C900 266.7 900 283.3 900 300C900 316.7 900 333.3 900 350C900 366.7 900 383.3 900 400C900 416.7 900 433.3 900 450C900 466.7 900 483.3 900 500C900 516.7 900 533.3 900 550C900 566.7 900 583.3 900 591.7L900 600Z" fill="#142e93"></path><path d="M803 600L803.5 591.7C804 583.3 805 566.7 802.2 550C799.3 533.3 792.7 516.7 788.8 500C785 483.3 784 466.7 788.7 450C793.3 433.3 803.7 416.7 805.7 400C807.7 383.3 801.3 366.7 797 350C792.7 333.3 790.3 316.7 789.2 300C788 283.3 788 266.7 795.2 250C802.3 233.3 816.7 216.7 818.3 200C820 183.3 809 166.7 802.2 150C795.3 133.3 792.7 116.7 790 100C787.3 83.3 784.7 66.7 789.5 50C794.3 33.3 806.7 16.7 812.8 8.3L819 0L900 0L900 8.3C900 16.7 900 33.3 900 50C900 66.7 900 83.3 900 100C900 116.7 900 133.3 900 150C900 166.7 900 183.3 900 200C900 216.7 900 233.3 900 250C900 266.7 900 283.3 900 300C900 316.7 900 333.3 900 350C900 366.7 900 383.3 900 400C900 416.7 900 433.3 900 450C900 466.7 900 483.3 900 500C900 516.7 900 533.3 900 550C900 566.7 900 583.3 900 591.7L900 600Z" fill="#132b85"></path><path d="M826 600L831.7 591.7C837.3 583.3 848.7 566.7 849.7 550C850.7 533.3 841.3 516.7 839 500C836.7 483.3 841.3 466.7 846.5 450C851.7 433.3 857.3 416.7 854 400C850.7 383.3 838.3 366.7 839 350C839.7 333.3 853.3 316.7 858.7 300C864 283.3 861 266.7 858 250C855 233.3 852 216.7 848.5 200C845 183.3 841 166.7 837.2 150C833.3 133.3 829.7 116.7 833.5 100C837.3 83.3 848.7 66.7 856.2 50C863.7 33.3 867.3 16.7 869.2 8.3L871 0L900 0L900 8.3C900 16.7 900 33.3 900 50C900 66.7 900 83.3 900 100C900 116.7 900 133.3 900 150C900 166.7 900 183.3 900 200C900 216.7 900 233.3 900 250C900 266.7 900 283.3 900 300C900 316.7 900 333.3 900 350C900 366.7 900 383.3 900 400C900 416.7 900 433.3 900 450C900 466.7 900 483.3 900 500C900 516.7 900 533.3 900 550C900 566.7 900 583.3 900 591.7L900 600Z" fill="#132777"></path></svg>